<svg width="86" height="85" viewBox="0 0 86 85" fill="none" xmlns="http://www.w3.org/2000/svg">
<path d="M55.2606 19.5401C66.6141 31.3685 57.7974 50.9418 41.4838 50.4372C28.341 50.0301 19.8572 35.6639 25.8827 23.9087C31.5785 12.7959 46.5616 10.4775 55.2606 19.5401ZM52.8468 43.9294C61.6296 35.9925 58.7441 21.196 47.6387 17.2504C35.1711 12.8203 23.1042 24.4112 27.0954 37.0516C30.5449 47.9767 44.3068 51.6467 52.8468 43.9304V43.9294Z" fill="url(#paint0_linear_150_739)"/>
<path d="M15.5692 26.0501C15.6508 26.137 17.3787 24.9804 17.3798 26.5271C17.3798 27.1547 16.2932 28.4045 16.1511 27.2151C15.9932 27.2405 15.4515 27.5829 15.5692 27.7451C16.4925 27.9699 17.1084 28.678 17.8335 29.2229C18.2893 28.6536 19.7194 28.52 19.9091 27.7939C20.0575 27.2268 19.9006 26.6957 20.2505 26.1211C20.8918 25.0684 21.989 25.4479 21.5045 26.6851C21.6233 26.6872 21.8077 26.6851 21.8798 26.7868C21.9212 26.8441 22.1978 27.9889 22.2212 28.1427C22.4512 29.6681 22.0007 29.4116 21.0869 30.0317C20.3226 30.5501 19.0356 31.7522 18.1568 31.871C17.4169 31.9706 16.7946 31.7374 16.0992 31.5635C16.1193 31.7204 16.4734 31.8095 16.6059 31.8508C17.0936 32.0024 17.6215 32.0236 18.0996 32.2123C18.2013 33.2332 17.6236 33.9996 16.8911 34.6335C15.3953 35.9279 13.5699 35.8494 12.8893 38.0523C12.3306 39.8618 12.9253 40.8753 11.278 42.3774C10.4744 43.111 9.54261 43.2212 9.52565 44.5506C9.51611 45.2831 10.5465 45.0848 11.014 45.6043C11.314 45.9382 11.4698 46.6283 11.0659 46.9389C10.8635 47.0948 10.6833 46.9262 10.6345 47.364C10.3451 47.4276 10.0218 47.2283 9.79491 47.2516C9.62318 47.2697 9.51081 47.4605 9.26593 47.469C8.99137 47.4785 7.87193 47.2919 7.7161 47.0714C7.18606 46.3198 7.90585 45.7548 7.93977 45.0732C7.96204 44.6248 7.7214 44.0566 7.74896 43.6198C7.8009 42.793 8.7942 42.459 8.94897 41.7445C9.10374 41.03 8.94261 40.2413 8.88748 39.512C8.48465 39.6477 8.2525 40.0134 7.86027 40.2329C6.28393 41.117 4.33127 40.376 4.11713 38.5049C3.76624 35.4434 6.66662 34.5519 7.7055 32.1243C7.7214 31.9462 6.95708 31.3462 6.8797 30.866C6.72598 29.9056 7.03871 28.7872 6.99524 27.813C7.15214 27.3412 8.0532 27.8776 8.25462 28.1416C9.40586 29.6448 8.85674 32.2727 7.98854 33.7897C7.23164 35.1116 4.90583 36.8692 5.5758 38.5304C5.72951 38.9109 6.19806 39.1357 6.59877 39.0848C7.72352 38.9417 8.37759 36.988 8.95003 36.1293C9.44509 35.3883 11.2207 33.7282 11.3193 33.0922C11.5038 31.8996 10.9027 30.8183 10.7956 29.6543L10.2274 29.86C9.79915 29.7381 9.98891 28.4904 9.9465 28.1183C9.85004 27.2766 9.44933 26.4847 9.52353 25.626L8.89279 25.7278C8.6055 24.0317 9.80763 21.9444 11.6395 21.8044L11.7561 20.9649C12.5787 21.303 14.1497 21.4037 14.6617 22.132C14.7868 22.3101 14.7974 22.5953 14.9331 22.7087C15.3434 23.0553 17.225 23.1497 17.349 23.579C17.4413 23.8992 17.5239 24.8257 17.3141 25.0949C16.8582 25.6801 15.6105 24.6656 15.5681 26.0501H15.5692Z" fill="url(#paint1_linear_150_739)"/>
<path d="M72.8124 20.9627L72.7509 21.708C74.8583 22.2136 75.6587 24.1356 75.6597 26.1402L75.3194 26.2419L74.9346 25.732C74.9187 26.7497 74.3134 27.726 74.4152 28.7416C74.4629 29.225 74.8053 29.6989 74.6145 30.1844L73.5565 29.6543C73.4897 30.8586 72.701 32.0978 73.1071 33.336C73.3117 33.9593 74.9389 35.453 75.4435 36.194C75.8463 36.7844 76.4325 38.2431 76.8481 38.6056C77.323 39.018 78.2389 39.3859 78.6937 38.77C79.7516 37.3357 77.64 35.5632 76.9032 34.5233C75.9629 33.195 75.17 31.0621 75.6205 29.4423C75.8145 28.7458 76.4781 27.3868 77.358 27.7632C77.2403 28.8349 77.8096 30.4388 77.2498 31.3897C77.1216 31.607 76.6562 31.8943 76.6742 32.101C77.341 34.0187 79.5025 34.9441 80.1333 36.9116C81.081 39.8693 78.1827 41.8145 75.8272 39.7325C75.7159 39.6339 75.6576 39.2215 75.5166 39.5141C75.3905 39.776 75.2431 41.0417 75.2569 41.3534C75.3025 42.4092 76.3551 42.6604 76.5004 43.2986C76.6467 43.9389 76.3445 44.5665 76.4145 45.1866C76.476 45.7326 76.8407 45.9308 76.7399 46.6739C76.618 47.5686 75.435 47.2008 74.8816 47.7817L74.7194 47.1446L73.6594 47.3577V46.9326C72.6862 47.3513 72.9576 46.1566 73.3912 45.6573C74.111 44.8272 75.0491 45.4845 74.8 44.0428C74.6283 43.0516 73.5417 42.8354 72.9141 42.2194C71.2403 40.5774 72.1816 38.4678 70.8438 36.7632C69.7487 35.3671 66.4307 35.0565 66.3395 32.6703C66.3024 31.6897 68.0993 32.1667 68.572 31.4565C67.9667 31.5413 67.3328 31.8667 66.7116 31.8826C65.5943 31.9112 64.3254 30.6826 63.4338 30.0752C63.049 29.8123 62.448 29.6893 62.236 29.2589C61.9211 28.6208 62.2762 28.1723 62.396 27.5596C62.4904 27.0762 62.2179 26.6034 62.9536 26.6851L62.6356 25.52C63.7275 25.4108 64.2013 25.8518 64.39 26.8918C64.4547 27.2522 64.3625 27.7473 64.5363 28.0176C64.8363 28.4819 66.172 28.8126 66.6289 29.2144C66.8091 29.2314 67.4886 28.4225 67.7505 28.2487C67.8936 28.1543 69.0957 27.6667 68.995 27.5342L68.254 27.2151L68.2031 27.6412C67.9413 28.0557 66.9279 27.073 67.0021 26.4444C67.1388 25.2879 68.1671 25.9812 68.6251 26.0501C68.9908 26.1041 68.7035 25.3133 68.3908 25.219C67.6212 24.9868 66.7392 25.9865 66.9798 23.9797C67.1017 22.961 68.5996 23.2748 69.3088 22.8105C69.6247 22.6037 69.6819 22.0165 70.0848 21.7843C70.2925 21.6645 72.082 21.0454 72.3608 20.985C72.5113 20.9521 72.6608 20.95 72.8124 20.9606V20.9627Z" fill="url(#paint2_linear_150_739)"/>
<path d="M43.9994 2.60324C44.0503 2.68274 44.663 2.80465 44.9174 3.22232C45.6775 4.4711 44.5708 5.68595 43.2393 5.53648C43.4768 6.84249 44.5591 8.04356 45.9977 7.66194C46.7726 7.45628 47.6705 6.24567 47.5782 5.44319C47.5443 5.15167 47.3355 4.94601 47.3906 4.61209C47.5867 3.42268 49.4291 3.27957 49.6804 4.50396C49.9581 5.8545 48.2535 5.71987 48.2609 7.21776C48.2726 9.56902 51.2991 9.64534 51.8207 7.50504C50.6822 7.23896 50.9779 5.44531 52.1853 5.49407C52.5829 5.50997 52.8521 5.90008 53.0249 5.89372C54.1295 5.13471 55.055 4.84106 54.2101 6.54885C53.0451 8.90647 51.3065 11.0711 50.238 13.4987C50.027 13.6493 49.1673 13.1415 48.8832 13.0376C45.421 11.7782 41.4457 11.422 37.8266 12.2139C36.97 12.4015 35.788 12.939 35.0068 13.0058C34.8191 13.0217 34.6421 13.0482 34.4841 12.9136L30.8269 5.74849L30.8862 5.37852C31.1672 4.91103 32.0354 5.65309 32.2802 5.89902C33.7315 4.60679 35.2898 6.74709 33.4845 7.5008L33.493 7.64815C34.093 8.8524 35.6842 9.74605 36.7124 8.44851C37.0824 7.98208 37.1555 6.81069 36.8651 6.29125C36.6255 5.86298 35.9418 5.85768 35.7128 5.1029C35.2729 3.65272 37.6093 3.07603 37.9135 4.39371C38.1149 5.26404 37.5064 5.72305 38.2082 6.75027C39.4739 8.60328 41.9651 7.56017 42.0701 5.48559C40.7185 5.71351 39.5322 4.27604 40.4778 3.09724C40.7153 2.80147 41.2973 2.66366 41.3831 2.51843C41.4785 2.35624 41.5104 1.49652 41.6683 1.10747C42.3807 -0.642723 43.2817 -0.146606 43.7694 1.40005C43.851 1.65871 43.9517 2.53115 43.9984 2.60218L43.9994 2.60324Z" fill="url(#paint3_linear_150_739)"/>
<path d="M52.2479 72.2706H40.905C41.221 75.7264 36.475 75.7148 36.6637 72.2706H30.8332C30.9106 74.0123 30.3657 76.0275 28.7184 76.8851C28.3707 77.0664 26.8675 77.5879 26.6406 77.2582C26.223 76.6508 27.0085 76.6784 27.3032 76.53C28.764 75.7911 29.3714 73.814 29.2442 72.2695H25.3219V69.9903C25.3219 69.8228 25.7459 68.9197 25.8689 68.7352C26.8346 67.3062 28.712 67.2235 29.8325 66.2324C30.211 65.8963 30.035 65.6642 30.8332 65.803V70.7854H33.4834C33.3499 70.478 33.3594 70.1377 33.2195 69.8303C33.0795 69.5228 32.5887 69.1783 32.6555 68.838C32.681 68.7076 33.4272 68.2709 33.6435 68.0313C34.058 67.5691 34.2011 66.7878 34.9675 66.8642V70.7865H36.6637V69.1433C36.6637 68.6578 35.6799 67.9295 35.9386 67.5151C35.9661 67.4705 36.6181 67.2034 36.828 66.9755C37.2361 66.5313 37.463 65.5878 38.2538 65.6981V72.7476C38.2538 73.3084 39.1941 73.7017 39.316 72.6437C39.4199 71.7469 39.4411 68.7341 39.3075 67.8776C39.2301 67.3804 38.5093 66.7073 38.5845 66.4073C38.6344 66.2122 39.21 65.962 39.4241 65.7553C39.9118 65.2825 40.0994 64.3571 40.904 64.426V70.7865H42.9181C42.7814 69.1348 43.8807 68.0324 45.2471 67.338C45.7326 67.091 46.339 66.9362 46.8065 66.6712C47.4161 66.3256 47.7023 65.6716 48.4305 65.8041V70.7865H50.6567V62.1468C50.6567 62.1129 50.486 61.7429 50.4489 61.7164C49.9942 61.3973 49.1694 62.5189 49.0677 62.4118C48.8715 60.9786 50.362 59.8666 51.6065 60.879C51.7804 61.02 52.2468 61.7546 52.2468 61.9348V72.2706H52.2479ZM46.8415 70.7865V68.2423C45.5917 68.661 44.5337 69.366 44.4033 70.7865H46.8415ZM29.2442 68.3483C27.9954 68.5115 26.9533 69.5313 26.806 70.7865H29.2442V68.3483Z" fill="url(#paint4_linear_150_739)"/>
<path d="M79.7039 67.8712C80.0018 65.22 82.0774 65.1829 83.764 64.0868C84.3746 63.6903 84.4764 63.0786 85.3223 63.261C85.3202 63.4963 85.2195 63.7062 85.2121 63.9447C85.1188 66.7529 85.511 70.1557 85.2174 72.8547C84.8951 75.8197 80.2191 75.2897 80.5531 72.2706L77.8573 72.2653C77.6378 73.3487 77.5106 74.4978 76.212 74.7692C74.4841 75.1296 73.4283 73.9434 73.5555 72.2716H62.3186C62.2879 74.1024 61.796 76.283 59.908 77.0165C59.5783 77.1448 58.6497 77.3918 58.3412 77.3632C58.0084 77.3325 58.0741 76.884 58.2087 76.7483C58.2702 76.6869 58.7122 76.6349 58.8946 76.5331C61.39 75.1285 60.8154 70.8066 60.7264 68.4045L59.8815 67.5543C60.1911 67.2394 60.5748 67.0847 60.8897 66.7624C61.1748 66.4709 61.5829 65.6811 61.8935 65.5401C62.0526 65.468 62.3176 65.5009 62.3176 65.6461V70.7875C63.0109 70.8808 63.7031 70.9349 64.389 70.7896C64.6158 70.1918 63.5165 69.1847 63.6035 68.8476C63.6575 68.6356 64.1844 68.4405 64.39 68.2486C64.7176 67.9444 65.1172 67.0921 65.4989 66.9182C65.6579 66.8461 65.9229 66.8801 65.9229 67.0242V70.7875C66.9162 70.9253 67.2734 69.6469 67.936 69.0373C68.2869 68.7151 68.7014 68.4394 69.1837 68.3769C71.7703 68.5529 74.9081 68.0483 77.4301 68.344C77.5848 68.3621 77.7025 68.3568 77.7958 68.5083V70.7345C77.8848 70.8713 78.1297 70.8935 78.2728 70.8935H82.1421C82.0456 71.5667 81.8495 73.1504 82.7506 73.3158C83.2234 73.4027 83.7322 72.8653 83.7322 72.4306V69.8334H79.8629L79.7039 69.6744C79.7506 69.0967 79.6403 68.4373 79.7039 67.8723V67.8712ZM83.7322 65.8041C82.3669 65.9822 81.3524 66.9723 81.188 68.3483H83.7322V65.8041ZM76.2057 69.8324C75.646 69.667 75.1721 69.8303 74.6728 69.8366C73.3307 69.8536 71.9622 69.7126 70.6456 69.7221C70.4155 69.7232 69.5823 69.7953 69.3703 69.8345C69.0533 69.8928 68.5667 70.5755 68.4671 70.8925H75.1456C74.9272 71.2942 75.011 73.1801 75.4286 73.3158C75.7011 73.4865 76.2057 73.0773 76.2057 72.8536V69.8324Z" fill="url(#paint5_linear_150_739)"/>
<path d="M20.0215 48.5778C20.1858 48.0223 21.4674 49.1184 21.6583 49.3792C23.1932 51.4782 21.3678 53.6164 19.1194 53.8231C12.8034 54.4029 12.3677 44.2368 19.8667 44.8103C22.8328 45.0371 25.4417 47.5813 27.7272 49.2467C30.6689 51.3913 33.8682 53.2708 37.446 54.1326C37.6029 54.2439 37.5912 54.8513 37.4481 54.8916C33.9849 54.8513 30.7558 53.2379 27.9382 51.369C25.7162 49.8955 22.042 46.2605 19.4278 46.2043C17.7317 46.1682 15.7557 47.2675 15.5702 49.1078C15.3476 51.3213 18.1674 52.8584 19.6006 51.1252C19.6674 51.0446 20.0226 50.4234 20.0226 50.381C20.0226 49.9835 19.9409 48.8534 20.0226 48.5789L20.0215 48.5778Z" fill="url(#paint6_linear_150_739)"/>
<path d="M24.2894 52.2626C24.4781 52.0771 24.9244 52.1672 24.9922 52.41C25.0134 52.4842 24.8661 53.328 24.8279 53.4902C24.1823 56.2697 21.2045 58.2616 18.4706 58.4758C13.3419 58.8754 9.89668 55.287 5.60654 53.451C4.39381 52.9326 2.92772 52.4386 1.73513 53.2952C-0.362764 54.8026 1.39697 57.7825 3.96342 56.6895C4.49452 56.4637 4.92809 55.8446 5.28852 55.6761C5.84082 55.4185 6.04223 56.4574 6.02209 56.8316C5.96485 57.9107 5.00018 58.7175 3.96554 58.8118C-0.777255 59.2411 -1.44086 52.198 2.92666 51.5185C7.28677 50.84 12.5691 56.2083 17.225 56.6747C19.7342 56.9259 22.3982 55.992 23.6724 53.7128C23.8569 53.3831 24.1198 52.4312 24.2894 52.2637V52.2626Z" fill="url(#paint7_linear_150_739)"/>
<path d="M69.807 52.5149C68.2127 54.1718 64.9975 54.3775 63.543 52.4407C62.7925 51.4411 63.1625 49.1608 64.4356 48.7803C65.3855 48.4962 65.1268 49.6082 65.2487 50.205C65.8307 53.0503 70.2883 52.0824 69.6904 48.8375C69.4413 47.4849 67.9477 46.3251 66.6098 46.1937C63.4625 45.8841 60.5801 49.1153 58.1758 50.7976C55.1006 52.9506 51.4401 54.9234 47.5814 54.8863L47.645 54.2376C49.0581 53.8379 50.45 53.3863 51.7878 52.7842C52.9921 52.2414 54.456 51.4474 55.567 50.7329C59.0356 48.5025 63.6755 43.2562 68.2201 45.2195C71.0632 46.4481 71.9696 50.2665 69.806 52.516L69.807 52.5149Z" fill="url(#paint8_linear_150_739)"/>
<path d="M60.4105 51.652C60.4635 51.4676 60.737 51.4358 60.8897 51.5969C61.0423 51.758 61.3773 53.2814 61.6646 53.7902C62.4268 55.1355 64.2628 56.3715 65.7766 56.6747C71.6463 57.8503 77.7863 50.4096 82.7188 51.6054C86.3909 52.4959 86.0347 58.303 82.2926 58.798C80.3442 59.0556 78.488 57.4878 79.7707 55.6326C80.0432 55.551 80.8584 56.4478 81.1997 56.6238C83.3124 57.7114 85.5683 55.5627 84.098 53.7255C82.8746 52.1969 80.7916 52.9156 79.3149 53.5941C74.9081 55.6199 70.9551 59.4426 65.6017 58.2277C63.7031 57.7962 60.4105 55.3528 60.4105 53.2421C60.4105 52.8775 60.3363 51.9107 60.4105 51.652Z" fill="url(#paint9_linear_150_739)"/>
<path d="M17.7953 65.8041V72.8536C17.7953 72.9087 17.5155 73.8045 17.4635 73.8999C16.7724 75.1603 14.4889 75.1805 13.8031 73.8787C13.5031 73.3105 13.6843 72.7465 13.3971 72.2706H0.09201C0.0633878 71.5052 0.944313 71.3822 1.41711 70.9985C1.77223 70.7101 1.89944 70.3857 2.17507 70.0529C2.45069 69.9713 3.39416 70.7865 3.74928 70.7865H15.1451V72.8536C15.1451 72.8981 15.3942 73.2469 15.4642 73.284C15.9731 73.548 16.1702 72.7858 16.2063 72.4306C16.272 71.7745 16.2964 69.9829 16.1988 69.3628C16.1183 68.8476 15.301 68.0462 15.3667 67.7864C15.4144 67.5999 16.1056 67.2447 16.3155 67.0285C16.7543 66.5779 16.9886 65.6652 17.7953 65.8051V65.8041Z" fill="url(#paint10_linear_150_739)"/>
<path d="M18.3254 62.1468C18.3879 61.5235 18.654 60.7168 19.2794 60.4507C20.5611 59.9069 21.5491 60.8154 21.6106 62.0927C21.1261 62.2624 20.4741 61.0676 20.0798 61.6751C20.0544 61.7154 19.9155 62.1214 19.9155 62.1468V70.7865H23.0957V67.8712C23.0957 67.408 22.166 66.791 22.2614 66.3977C22.4788 66.1454 22.8349 66.0723 23.0851 65.8465C23.6088 65.3737 23.7964 64.3285 24.6858 64.426V72.2706H18.3254V62.1468Z" fill="url(#paint11_linear_150_739)"/>
<path d="M62.2126 40.2541C62.0706 40.0929 62.4851 39.6647 62.6451 39.5756C63.7317 38.9714 64.496 39.9912 65.4565 40.2445C66.1264 40.4216 66.8388 40.4046 67.512 40.2551C67.3307 39.5025 66.9947 38.6014 66.9024 37.8445C66.6098 35.4243 69.7275 35.6141 70.7123 37.2148C70.8883 37.5021 71.3823 38.8505 71.2784 39.0859C71.024 39.6657 69.5717 39.5618 69.4657 39.7187C69.2844 40.9484 69.4466 42.3064 67.7929 42.2619C67.2342 42.247 66.3014 41.805 65.8773 41.8463C65.3409 41.8993 64.9201 42.8343 64.3657 42.882C64.1197 42.9032 63.1529 41.9778 62.7861 41.8484L63.0565 41.3682C62.6356 41.0237 61.9455 40.9442 62.6324 40.4141L62.2105 40.253L62.2126 40.2541Z" fill="url(#paint12_linear_150_739)"/>
<path d="M21.3211 41.3438C21.1632 41.5898 21.2035 42.0021 20.8208 42.3806C19.6081 43.5764 19.2434 41.9693 18.5692 41.8664C18.2066 41.8103 17.102 42.2672 16.572 42.2735C14.8091 42.2947 15.161 40.9209 14.9331 39.6212C14.3098 39.6615 13.5932 39.6011 13.149 39.1261C13.0653 37.6431 14.0776 36.1791 15.6222 36.0159C18.4589 35.7148 17.3427 38.5208 16.9939 40.1565C18.054 41.1339 20.4625 39.2109 21.0848 39.3488C21.2734 39.3901 21.9212 39.6943 21.9381 39.8873C21.9572 40.1078 21.7823 40.2594 21.7431 40.4406C21.5522 41.3173 21.6339 40.8604 21.3233 41.3449L21.3211 41.3438Z" fill="url(#paint13_linear_150_739)"/>
<path d="M52.8839 61.6168C53.1935 59.75 56.1882 60.0182 56.0631 62.0928C55.8765 62.2804 55.1631 61.3973 54.8419 61.4599C54.5048 61.4641 54.4115 62.0016 54.3797 62.2645C54.0977 64.5956 54.4317 67.796 54.4645 70.1928C54.4666 70.3402 54.332 70.5098 54.368 70.6794C54.579 70.9084 54.8398 69.7985 55.4281 70.0942C55.5882 70.1748 55.8045 70.7218 56.0599 70.9487C56.5348 71.3716 57.4656 71.4819 57.4412 72.2706H52.8829V61.6168H52.8839Z" fill="url(#paint14_linear_150_739)"/>
<path d="M6.55743 79.3731C6.74082 81.5918 9.23731 79.7897 7.7797 78.7349C6.36344 77.7109 4.39593 79.9996 3.23726 80.6632C2.84291 80.889 2.41676 81.0533 1.99485 81.2229L0.940073 81.4922C1.63018 81.612 2.42524 81.8706 3.04751 82.194C4.10441 82.7431 5.84188 84.523 6.93906 84.5632C7.1691 84.5717 7.71292 84.2982 7.87511 84.135C9.08678 82.9159 6.59559 81.5367 6.55743 83.6134C6.1016 83.995 5.19523 82.0975 6.85001 81.8357C9.06664 81.4858 9.40162 85.0064 6.82351 85C5.48887 84.9968 3.80759 83.201 2.60122 82.5353C1.91853 82.1579 1.18919 81.8537 0.420634 81.6947L0.424875 81.295C1.14255 81.066 1.8528 80.8318 2.51853 80.4745C4.03656 79.6593 5.77615 77.4946 7.62281 78.0427C9.26699 78.5314 8.83236 81.4381 6.85001 81.1519C5.24611 80.9198 6.09842 78.9872 6.55637 79.3731H6.55743Z" fill="url(#paint15_linear_150_739)"/>
<path d="M0.201198 50.4276C-0.17725 49.887 1.88566 48.9467 2.25987 48.8375C5.02138 48.0297 8.19419 49.2976 10.5136 50.7711C10.6822 50.8782 11.5875 51.4782 11.6458 51.5471C11.8716 51.8163 11.7963 52.3029 11.4084 52.2181C8.44437 51.1867 5.3765 49.3474 2.12312 50.0799C1.47223 50.2262 0.857387 50.6948 0.201198 50.4287V50.4276Z" fill="url(#paint16_linear_150_739)"/>
<path d="M85.2163 81.7042C84.4891 81.8039 83.7789 82.0922 83.1312 82.4293C81.6778 83.1851 79.8958 85.2777 78.2145 84.9449C76.5332 84.612 76.5566 82.0901 78.3004 81.8335C79.5937 81.6438 80.164 83.2265 79.2258 83.6113C78.982 83.7109 78.9672 82.9668 78.8007 82.7675C78.0417 81.8579 76.6869 83.2975 77.7226 84.2155C79.14 85.4707 81.1774 82.9042 82.3891 82.3222L84.5803 81.3872C83.6845 81.3682 82.8121 80.9176 82.0658 80.4565C80.9771 79.7833 79.4379 77.9823 78.0714 78.5356C76.7368 79.0752 77.5117 80.7788 78.434 80.4968C79.0912 80.2954 78.8612 79.2946 79.2258 79.3731C80.7693 80.8106 78.0735 81.8028 77.2435 80.5084C76.3032 79.0424 77.7354 77.6971 79.3096 78.0183C80.2318 78.207 82.6552 80.3568 84.0216 80.9388C84.47 81.1296 85.2715 81.0565 85.2174 81.7042H85.2163Z" fill="url(#paint17_linear_150_739)"/>
<path d="M13.1024 79.5045C15.2882 79.1272 16.5285 81.7413 15.3593 83.4544L15.8734 83.7851C16.0377 84.93 15.2702 84.2219 14.6702 84.2442C14.3978 84.2548 14.1741 84.4201 13.9176 84.4519C10.626 84.8569 10.5179 79.9508 13.1024 79.5045ZM14.72 83.0823C16.0473 80.3876 12.1578 79.0052 12.0709 82.2353C13.1098 82.0933 13.9197 82.477 14.72 83.0823ZM13.979 83.6124C13.6398 83.13 13.0154 83.0961 12.496 82.9774C12.6349 83.5965 13.4543 83.6622 13.979 83.6124Z" fill="url(#paint18_linear_150_739)"/>
<path d="M39.633 79.5851L40.6782 79.6C40.9888 80.3865 41.1976 81.2272 41.4923 82.0191C41.5962 82.2989 41.7022 82.7282 41.9641 82.8714L43.04 79.6L44.0853 79.5851V84.4615L43.3432 84.3555V81.0692L42.1846 84.2823C42.0468 84.4784 41.6747 84.4837 41.5326 84.2823L40.3739 81.0692V84.3555H39.6319V79.5851H39.633Z" fill="url(#paint19_linear_150_739)"/>
<path d="M84.8856 50.4202C84.7287 50.6736 82.9499 49.9633 82.5004 49.9156C81.2262 49.7821 79.7612 50.0206 78.5368 50.3778C77.9262 50.5559 74.4523 52.0686 74.1915 51.81L74.3251 51.0944C76.7643 49.6029 79.2227 48.3435 82.1951 48.6308C82.7888 48.688 85.4103 49.5764 84.8867 50.4192L84.8856 50.4202Z" fill="url(#paint20_linear_150_739)"/>
<path d="M57.9734 82.7654C58.2543 82.7919 58.1451 82.7707 58.1822 82.6063C58.4133 81.5961 58.5893 80.5699 58.9327 79.5915C59.043 79.5618 59.1469 79.5798 59.2465 79.6349C59.6536 79.865 59.907 81.86 60.0638 82.4261C60.0999 82.5576 60.0214 82.8417 60.2504 82.7654L61.1674 79.5936L61.7886 79.5851C61.4356 80.9664 61.1292 82.4813 60.6755 83.8254C60.4964 84.3565 60.5123 84.5516 59.8232 84.2537L59.0854 81.2812L58.4091 84.2929L57.7052 84.2516L56.4893 79.5851C56.6674 79.5968 56.8932 79.5448 57.0575 79.5989C57.331 79.689 57.8642 82.3074 57.9744 82.7643L57.9734 82.7654Z" fill="url(#paint21_linear_150_739)"/>
<path d="M21.9137 32.2144C21.9826 32.3257 21.8639 34.4173 21.813 34.6812C21.7282 35.1286 21.5978 35.3978 21.1049 35.4657C20.6862 35.5229 18.0084 34.8424 17.8409 34.5339C17.6734 34.2254 18.1611 33.9455 18.3126 33.619C18.4642 33.2925 18.4642 32.9363 18.602 32.612C18.9233 32.3713 20.2939 33.3095 20.4445 33.1547C20.1826 32.4222 21.6148 31.7331 21.9137 32.2144Z" fill="url(#paint22_linear_150_739)"/>
<path d="M64.0158 33.2597L65.6536 32.5187L66.5494 34.4682C66.4795 34.7692 63.737 35.4933 63.3331 35.4774C62.4724 35.4434 62.5953 34.4204 62.5042 33.7632C62.4056 33.0498 62.4936 33.283 62.5201 32.789C62.5317 32.5611 62.2285 32.2886 62.6897 32.2006C63.5547 32.0374 63.8664 32.4837 64.0158 33.2597Z" fill="url(#paint23_linear_150_739)"/>
<path d="M26.0109 79.5851C27.5332 79.8374 27.476 82.2237 26.0703 82.7102C26.1731 82.9911 27.3117 84.2781 27.123 84.4604C25.9155 84.6321 25.7279 83.4459 25.1406 82.6869C25.0717 82.5979 25.1427 82.495 24.8979 82.5533V84.4615L24.1558 84.3555V79.5851C24.724 79.6508 25.4692 79.495 26.0109 79.5851ZM24.8979 82.0233C26.8495 82.2745 26.983 80.0971 24.8979 80.4332V82.0233Z" fill="url(#paint24_linear_150_739)"/>
<path d="M20.2324 84.4604C19.1236 84.5484 19.343 83.9049 18.9657 83.1311L17.3586 83.1449C17.0904 83.8148 17.1275 84.5749 16.2052 84.4594L17.807 79.5968L18.5904 79.689L20.2324 84.4594V84.4604ZM18.6423 82.2342C18.6879 82.1908 18.4261 81.4201 18.3731 81.2855C18.3243 81.1604 18.266 80.8593 18.1144 80.8572L17.6893 82.2332H18.6434L18.6423 82.2342Z" fill="url(#paint25_linear_150_739)"/>
<path d="M53.414 79.5851V81.5993H55.0041V79.7441C55.1758 79.5056 55.4885 79.5915 55.7461 79.5851L55.8522 84.3565H55.003V82.3413H53.4129V84.3555H52.6709V79.7441C52.8426 79.5045 53.1553 79.5925 53.4129 79.5851H53.414Z" fill="url(#paint26_linear_150_739)"/>
<path d="M47.0387 79.5989L48.7486 84.3544L47.9153 84.3406L47.3768 83.0261L46.0401 83.0187C45.7369 83.0664 45.5948 84.0745 45.4475 84.3406L44.7712 84.4583L44.6598 84.2463L46.2977 79.6477L47.0376 79.5989H47.0387ZM47.1585 82.2342L47.0567 81.754L46.6295 80.8583L46.2044 82.2353H47.1574L47.1585 82.2342Z" fill="url(#paint27_linear_150_739)"/>
<path d="M32.9682 84.3406L32.6163 83.1025C32.2506 83.0314 31.2371 82.8247 30.9891 83.0802C30.6435 83.4364 30.7283 84.947 29.7827 84.2876L31.5403 79.6021C31.7725 79.5586 32.0693 79.5215 32.2029 79.7537L33.7834 84.1148C33.8651 84.6512 33.2884 84.3364 32.9682 84.3417V84.3406ZM31.8933 80.9632C31.6484 80.9123 31.7237 80.9918 31.6559 81.0989C31.5732 81.2282 31.2138 82.195 31.2583 82.2353H32.3184L31.8933 80.9632Z" fill="url(#paint28_linear_150_739)"/>
<path d="M52.2479 55.7333V61.2457C51.7539 60.826 51.3924 60.3616 50.662 60.3934C50.6185 59.9747 50.7171 59.5083 50.6334 59.097C50.5401 58.6401 49.8797 58.1715 49.9104 57.8058C49.9359 57.4931 50.5306 57.2864 50.7627 57.0574C51.2387 56.5899 51.4125 55.6284 52.2479 55.7333Z" fill="url(#paint29_linear_150_739)"/>
<path d="M70.5618 79.7166L72.1763 84.3544L71.43 84.3067L70.9593 83.0813C70.8099 82.901 69.6024 82.9339 69.3841 83.0738L68.8731 84.3374L68.1491 84.3544L69.753 79.865C69.9258 79.5173 70.2554 79.5215 70.5618 79.7166ZM70.2682 80.8572C69.9968 80.8148 70.1039 80.8816 70.0466 81.0067C69.8759 81.383 69.8039 81.8516 69.6332 82.2353H70.6922L70.2671 80.8572H70.2682Z" fill="url(#paint30_linear_150_739)"/>
<path d="M66.2208 79.7102L67.83 84.3544L67.0837 84.3067L66.56 83.0282C66.418 82.9424 65.5476 82.9466 65.3324 82.971C64.7589 83.0378 64.7409 83.9102 64.5289 84.3406L63.8017 84.3544L65.3324 80.0028C65.5869 79.5014 65.7109 79.5904 66.2197 79.7102H66.2208ZM65.9208 80.8572C65.6505 80.8148 65.7565 80.8805 65.7003 81.0056C65.536 81.3713 65.4469 81.8579 65.2869 82.2342H66.3469L65.9218 80.8572H65.9208Z" fill="url(#paint31_linear_150_739)"/>
<path d="M22.8508 79.8289C22.96 79.9519 23.2728 80.7491 23.1985 80.8508C22.4311 81.1986 22.5159 80.6261 22.2169 80.359C21.8236 80.007 21.4176 80.5604 21.5024 81.0141C21.6031 81.5579 23.2007 81.418 23.313 82.7123C23.5081 84.9491 20.4816 85.1346 20.5515 82.8714C21.4696 82.6265 21.2215 83.589 21.9667 83.6972C22.325 83.6654 22.5731 83.1555 22.5371 82.8311C22.4512 82.0636 20.9173 82.4834 20.7042 81.0735C20.5166 79.8342 22.0229 78.8929 22.8519 79.83L22.8508 79.8289Z" fill="url(#paint32_linear_150_739)"/>
<path d="M52.8839 55.7333C53.5666 55.6422 53.7596 56.4075 54.0998 56.7966C54.3468 57.0786 55.196 57.597 55.1938 57.8164C55.1917 58.0358 54.6596 58.5627 54.5302 58.9168C54.3787 59.3291 54.3468 59.7457 54.3649 60.1825C53.9228 60.1719 53.52 60.3744 53.1967 60.6574C53.0461 60.7899 53.0525 61.0168 52.8839 61.0337V55.7333Z" fill="url(#paint33_linear_150_739)"/>
<path d="M51.6118 80.8572C50.7818 81.0576 51.0002 80.4406 50.4807 80.2413C48.7528 81.5622 51.808 81.1933 51.8037 82.9244C51.7984 84.929 49.039 85.0445 49.1132 82.9742C49.7609 82.5904 49.7196 83.1279 50.0143 83.4597C50.5539 84.0671 51.1168 83.4332 50.9747 82.7113C50.8645 82.1516 49.2383 82.2406 49.18 81.0088C49.092 79.1462 51.6606 78.9141 51.6108 80.8572H51.6118Z" fill="url(#paint34_linear_150_739)"/>
<path d="M74.0325 79.5851C74.0908 79.5894 74.4459 79.6561 74.4608 79.6805L74.5106 80.3272H73.6625V84.3555L73.0318 84.3502L72.9215 80.3272H72.1784V79.5862C72.7837 79.6212 73.4346 79.5374 74.0336 79.5862L74.0325 79.5851Z" fill="url(#paint35_linear_150_739)"/>
<path d="M35.1806 79.5851V83.6134L36.5587 83.6124V84.3555H34.4386V79.5851H35.1806Z" fill="url(#paint36_linear_150_739)"/>
<path d="M23.3883 72.7137C24.8756 72.5441 25.06 74.7851 23.6682 74.9186C22.1385 75.0649 21.8904 72.8854 23.3883 72.7137Z" fill="url(#paint37_linear_150_739)"/>
<path d="M11.8292 66.6818C12.814 67.656 11.1285 69.3341 10.1161 68.2359C9.10374 67.1377 10.8645 65.7267 11.8292 66.6818Z" fill="url(#paint38_linear_150_739)"/>
<path d="M7.79878 66.4613C9.64332 65.9143 9.95286 68.4076 8.39985 68.5539C6.90726 68.6949 6.86061 66.7391 7.79878 66.4613Z" fill="url(#paint39_linear_150_739)"/>
<path d="M24.3381 75.3734C24.901 75.949 24.6233 76.9975 23.841 77.2021C22.1501 77.6431 21.7537 75.0607 23.5738 75.1222C23.7805 75.1296 24.2003 75.2314 24.3381 75.3734Z" fill="url(#paint40_linear_150_739)"/>
<path d="M36.4199 64.8172C36.2916 64.9348 35.752 65.1362 35.5697 65.1341C34.0781 65.115 33.9626 62.715 35.9693 63.0542C36.7527 63.1867 36.9584 64.3263 36.4199 64.8172Z" fill="url(#paint41_linear_150_739)"/>
<path d="M37.4418 64.814C36.3361 63.7083 38.1817 62.3355 39.104 63.3108C40.1132 64.3772 38.4308 65.802 37.4418 64.814Z" fill="url(#paint42_linear_150_739)"/>
<path d="M37.7937 61.1758C38.8814 62.2772 36.8418 63.7168 36.0266 62.5719C35.2262 61.4482 36.8237 60.1931 37.7937 61.1758Z" fill="url(#paint43_linear_150_739)"/>
<path d="M83.2753 61.5956C84.4435 62.8581 81.7711 64.2278 81.3439 62.626C81.0121 61.3825 82.564 60.827 83.2753 61.5956Z" fill="url(#paint44_linear_150_739)"/>
<path d="M79.7803 61.2659C81.469 60.897 81.6937 63.3055 80.0633 63.3617C78.8273 63.4041 78.5569 61.533 79.7803 61.2659Z" fill="url(#paint45_linear_150_739)"/>
<path d="M63.1667 79.5851V84.3555H62.5296C62.5317 83.377 62.4066 82.4187 62.4194 81.435C62.4268 80.8752 62.6791 80.3303 62.4363 79.7526C62.4936 79.513 62.9653 79.5904 63.1656 79.5851H63.1667Z" fill="url(#paint46_linear_150_739)"/>
<path d="M53.3811 38.8463C53.0991 39.1866 52.1567 39.8926 51.7507 40.129C48.5885 41.9693 44.9058 40.9325 42.8768 38.0194C41.8655 36.5682 40.4874 32.983 38.4149 33.0381C37.6485 33.0582 37.0729 33.6477 36.3488 33.6826C36.229 32.5653 37.3835 31.7257 38.2909 31.3314C40.234 30.4865 42.1549 31.042 43.8733 32.0925C44.8348 29.4731 45.5588 25.5465 43.5531 23.2398C41.5962 20.9892 38.5644 22.7437 37.1502 24.6794C34.9718 27.6614 32.628 36.4781 36.8746 38.5102C37.7545 38.9311 37.9135 38.6862 38.7329 38.6576C39.5524 38.629 39.4591 39.2056 38.8612 39.5343C35.8039 41.2156 31.4714 38.3809 30.3318 35.4063C28.0357 29.4148 32.6534 22.9144 38.4467 21.3094C46.6464 19.0376 52.2362 26.2896 48.1348 33.6476C47.8857 34.095 46.5903 35.7604 46.6507 36.0413C46.7111 36.3222 47.7892 37.5774 48.0616 37.8191C48.933 38.5919 49.9624 38.9851 51.138 38.876C51.8355 38.8113 52.6899 38.2113 53.1532 38.2314C53.2952 38.2378 53.4702 38.2537 53.5168 38.4138C53.5316 38.5707 53.485 38.7254 53.3843 38.8463H53.3811Z" fill="url(#paint47_linear_150_739)"/>
<defs>
<linearGradient id="paint0_linear_150_739" x1="3.60406" y1="42.5099" x2="85.3361" y2="42.5099" gradientUnits="userSpaceOnUse">
<stop stop-color="#FBF49F"/>
<stop offset="1" stop-color="#A6833F"/>
</linearGradient>
<linearGradient id="paint1_linear_150_739" x1="3.60406" y1="42.5099" x2="85.3361" y2="42.5099" gradientUnits="userSpaceOnUse">
<stop stop-color="#FBF49F"/>
<stop offset="1" stop-color="#A6833F"/>
</linearGradient>
<linearGradient id="paint2_linear_150_739" x1="3.60406" y1="42.5099" x2="85.3361" y2="42.5099" gradientUnits="userSpaceOnUse">
<stop stop-color="#FBF49F"/>
<stop offset="1" stop-color="#A6833F"/>
</linearGradient>
<linearGradient id="paint3_linear_150_739" x1="3.60406" y1="42.5099" x2="85.3361" y2="42.5099" gradientUnits="userSpaceOnUse">
<stop stop-color="#FBF49F"/>
<stop offset="1" stop-color="#A6833F"/>
</linearGradient>
<linearGradient id="paint4_linear_150_739" x1="3.60406" y1="42.5099" x2="85.3361" y2="42.5099" gradientUnits="userSpaceOnUse">
<stop stop-color="#FBF49F"/>
<stop offset="1" stop-color="#A6833F"/>
</linearGradient>
<linearGradient id="paint5_linear_150_739" x1="3.60406" y1="42.5099" x2="85.3361" y2="42.5099" gradientUnits="userSpaceOnUse">
<stop stop-color="#FBF49F"/>
<stop offset="1" stop-color="#A6833F"/>
</linearGradient>
<linearGradient id="paint6_linear_150_739" x1="3.60406" y1="42.5099" x2="85.3361" y2="42.5099" gradientUnits="userSpaceOnUse">
<stop stop-color="#FBF49F"/>
<stop offset="1" stop-color="#A6833F"/>
</linearGradient>
<linearGradient id="paint7_linear_150_739" x1="3.60406" y1="42.5099" x2="85.3361" y2="42.5099" gradientUnits="userSpaceOnUse">
<stop stop-color="#FBF49F"/>
<stop offset="1" stop-color="#A6833F"/>
</linearGradient>
<linearGradient id="paint8_linear_150_739" x1="3.60406" y1="42.5099" x2="85.3361" y2="42.5099" gradientUnits="userSpaceOnUse">
<stop stop-color="#FBF49F"/>
<stop offset="1" stop-color="#A6833F"/>
</linearGradient>
<linearGradient id="paint9_linear_150_739" x1="3.60406" y1="42.5099" x2="85.3361" y2="42.5099" gradientUnits="userSpaceOnUse">
<stop stop-color="#FBF49F"/>
<stop offset="1" stop-color="#A6833F"/>
</linearGradient>
<linearGradient id="paint10_linear_150_739" x1="3.60406" y1="42.5099" x2="85.3361" y2="42.5099" gradientUnits="userSpaceOnUse">
<stop stop-color="#FBF49F"/>
<stop offset="1" stop-color="#A6833F"/>
</linearGradient>
<linearGradient id="paint11_linear_150_739" x1="3.60406" y1="42.5099" x2="85.3361" y2="42.5099" gradientUnits="userSpaceOnUse">
<stop stop-color="#FBF49F"/>
<stop offset="1" stop-color="#A6833F"/>
</linearGradient>
<linearGradient id="paint12_linear_150_739" x1="3.60406" y1="42.5099" x2="85.3361" y2="42.5099" gradientUnits="userSpaceOnUse">
<stop stop-color="#FBF49F"/>
<stop offset="1" stop-color="#A6833F"/>
</linearGradient>
<linearGradient id="paint13_linear_150_739" x1="3.60406" y1="42.5099" x2="85.3361" y2="42.5099" gradientUnits="userSpaceOnUse">
<stop stop-color="#FBF49F"/>
<stop offset="1" stop-color="#A6833F"/>
</linearGradient>
<linearGradient id="paint14_linear_150_739" x1="3.60406" y1="42.5099" x2="85.3361" y2="42.5099" gradientUnits="userSpaceOnUse">
<stop stop-color="#FBF49F"/>
<stop offset="1" stop-color="#A6833F"/>
</linearGradient>
<linearGradient id="paint15_linear_150_739" x1="3.60406" y1="42.5099" x2="85.3361" y2="42.5099" gradientUnits="userSpaceOnUse">
<stop stop-color="#FBF49F"/>
<stop offset="1" stop-color="#A6833F"/>
</linearGradient>
<linearGradient id="paint16_linear_150_739" x1="3.60406" y1="42.5099" x2="85.3361" y2="42.5099" gradientUnits="userSpaceOnUse">
<stop stop-color="#FBF49F"/>
<stop offset="1" stop-color="#A6833F"/>
</linearGradient>
<linearGradient id="paint17_linear_150_739" x1="3.60406" y1="42.5099" x2="85.3361" y2="42.5099" gradientUnits="userSpaceOnUse">
<stop stop-color="#FBF49F"/>
<stop offset="1" stop-color="#A6833F"/>
</linearGradient>
<linearGradient id="paint18_linear_150_739" x1="3.60406" y1="42.5099" x2="85.3361" y2="42.5099" gradientUnits="userSpaceOnUse">
<stop stop-color="#FBF49F"/>
<stop offset="1" stop-color="#A6833F"/>
</linearGradient>
<linearGradient id="paint19_linear_150_739" x1="3.60406" y1="42.5099" x2="85.3361" y2="42.5099" gradientUnits="userSpaceOnUse">
<stop stop-color="#FBF49F"/>
<stop offset="1" stop-color="#A6833F"/>
</linearGradient>
<linearGradient id="paint20_linear_150_739" x1="3.60406" y1="42.5099" x2="85.3361" y2="42.5099" gradientUnits="userSpaceOnUse">
<stop stop-color="#FBF49F"/>
<stop offset="1" stop-color="#A6833F"/>
</linearGradient>
<linearGradient id="paint21_linear_150_739" x1="3.60406" y1="42.5099" x2="85.3361" y2="42.5099" gradientUnits="userSpaceOnUse">
<stop stop-color="#FBF49F"/>
<stop offset="1" stop-color="#A6833F"/>
</linearGradient>
<linearGradient id="paint22_linear_150_739" x1="3.60406" y1="42.5099" x2="85.3361" y2="42.5099" gradientUnits="userSpaceOnUse">
<stop stop-color="#FBF49F"/>
<stop offset="1" stop-color="#A6833F"/>
</linearGradient>
<linearGradient id="paint23_linear_150_739" x1="3.60406" y1="42.5099" x2="85.3361" y2="42.5099" gradientUnits="userSpaceOnUse">
<stop stop-color="#FBF49F"/>
<stop offset="1" stop-color="#A6833F"/>
</linearGradient>
<linearGradient id="paint24_linear_150_739" x1="3.60406" y1="42.5099" x2="85.3361" y2="42.5099" gradientUnits="userSpaceOnUse">
<stop stop-color="#FBF49F"/>
<stop offset="1" stop-color="#A6833F"/>
</linearGradient>
<linearGradient id="paint25_linear_150_739" x1="3.60406" y1="42.5099" x2="85.3361" y2="42.5099" gradientUnits="userSpaceOnUse">
<stop stop-color="#FBF49F"/>
<stop offset="1" stop-color="#A6833F"/>
</linearGradient>
<linearGradient id="paint26_linear_150_739" x1="3.60406" y1="42.5099" x2="85.3361" y2="42.5099" gradientUnits="userSpaceOnUse">
<stop stop-color="#FBF49F"/>
<stop offset="1" stop-color="#A6833F"/>
</linearGradient>
<linearGradient id="paint27_linear_150_739" x1="3.60406" y1="42.5099" x2="85.3361" y2="42.5099" gradientUnits="userSpaceOnUse">
<stop stop-color="#FBF49F"/>
<stop offset="1" stop-color="#A6833F"/>
</linearGradient>
<linearGradient id="paint28_linear_150_739" x1="3.60406" y1="42.5099" x2="85.3361" y2="42.5099" gradientUnits="userSpaceOnUse">
<stop stop-color="#FBF49F"/>
<stop offset="1" stop-color="#A6833F"/>
</linearGradient>
<linearGradient id="paint29_linear_150_739" x1="3.60406" y1="42.5099" x2="85.3361" y2="42.5099" gradientUnits="userSpaceOnUse">
<stop stop-color="#FBF49F"/>
<stop offset="1" stop-color="#A6833F"/>
</linearGradient>
<linearGradient id="paint30_linear_150_739" x1="3.60406" y1="42.5099" x2="85.3361" y2="42.5099" gradientUnits="userSpaceOnUse">
<stop stop-color="#FBF49F"/>
<stop offset="1" stop-color="#A6833F"/>
</linearGradient>
<linearGradient id="paint31_linear_150_739" x1="3.60406" y1="42.5099" x2="85.3361" y2="42.5099" gradientUnits="userSpaceOnUse">
<stop stop-color="#FBF49F"/>
<stop offset="1" stop-color="#A6833F"/>
</linearGradient>
<linearGradient id="paint32_linear_150_739" x1="3.60406" y1="42.5099" x2="85.3361" y2="42.5099" gradientUnits="userSpaceOnUse">
<stop stop-color="#FBF49F"/>
<stop offset="1" stop-color="#A6833F"/>
</linearGradient>
<linearGradient id="paint33_linear_150_739" x1="3.60406" y1="42.5099" x2="85.3361" y2="42.5099" gradientUnits="userSpaceOnUse">
<stop stop-color="#FBF49F"/>
<stop offset="1" stop-color="#A6833F"/>
</linearGradient>
<linearGradient id="paint34_linear_150_739" x1="3.60406" y1="42.5099" x2="85.3361" y2="42.5099" gradientUnits="userSpaceOnUse">
<stop stop-color="#FBF49F"/>
<stop offset="1" stop-color="#A6833F"/>
</linearGradient>
<linearGradient id="paint35_linear_150_739" x1="3.60406" y1="42.5099" x2="85.3361" y2="42.5099" gradientUnits="userSpaceOnUse">
<stop stop-color="#FBF49F"/>
<stop offset="1" stop-color="#A6833F"/>
</linearGradient>
<linearGradient id="paint36_linear_150_739" x1="3.60406" y1="42.5099" x2="85.3361" y2="42.5099" gradientUnits="userSpaceOnUse">
<stop stop-color="#FBF49F"/>
<stop offset="1" stop-color="#A6833F"/>
</linearGradient>
<linearGradient id="paint37_linear_150_739" x1="3.60406" y1="42.5099" x2="85.3361" y2="42.5099" gradientUnits="userSpaceOnUse">
<stop stop-color="#FBF49F"/>
<stop offset="1" stop-color="#A6833F"/>
</linearGradient>
<linearGradient id="paint38_linear_150_739" x1="3.60406" y1="42.5099" x2="85.3361" y2="42.5099" gradientUnits="userSpaceOnUse">
<stop stop-color="#FBF49F"/>
<stop offset="1" stop-color="#A6833F"/>
</linearGradient>
<linearGradient id="paint39_linear_150_739" x1="3.60406" y1="42.5099" x2="85.3361" y2="42.5099" gradientUnits="userSpaceOnUse">
<stop stop-color="#FBF49F"/>
<stop offset="1" stop-color="#A6833F"/>
</linearGradient>
<linearGradient id="paint40_linear_150_739" x1="3.60406" y1="42.5099" x2="85.3361" y2="42.5099" gradientUnits="userSpaceOnUse">
<stop stop-color="#FBF49F"/>
<stop offset="1" stop-color="#A6833F"/>
</linearGradient>
<linearGradient id="paint41_linear_150_739" x1="3.60406" y1="42.5099" x2="85.3361" y2="42.5099" gradientUnits="userSpaceOnUse">
<stop stop-color="#FBF49F"/>
<stop offset="1" stop-color="#A6833F"/>
</linearGradient>
<linearGradient id="paint42_linear_150_739" x1="3.60406" y1="42.5099" x2="85.3361" y2="42.5099" gradientUnits="userSpaceOnUse">
<stop stop-color="#FBF49F"/>
<stop offset="1" stop-color="#A6833F"/>
</linearGradient>
<linearGradient id="paint43_linear_150_739" x1="3.60406" y1="42.5099" x2="85.3361" y2="42.5099" gradientUnits="userSpaceOnUse">
<stop stop-color="#FBF49F"/>
<stop offset="1" stop-color="#A6833F"/>
</linearGradient>
<linearGradient id="paint44_linear_150_739" x1="3.60406" y1="42.5099" x2="85.3361" y2="42.5099" gradientUnits="userSpaceOnUse">
<stop stop-color="#FBF49F"/>
<stop offset="1" stop-color="#A6833F"/>
</linearGradient>
<linearGradient id="paint45_linear_150_739" x1="3.60406" y1="42.5099" x2="85.3361" y2="42.5099" gradientUnits="userSpaceOnUse">
<stop stop-color="#FBF49F"/>
<stop offset="1" stop-color="#A6833F"/>
</linearGradient>
<linearGradient id="paint46_linear_150_739" x1="3.60406" y1="42.5099" x2="85.3361" y2="42.5099" gradientUnits="userSpaceOnUse">
<stop stop-color="#FBF49F"/>
<stop offset="1" stop-color="#A6833F"/>
</linearGradient>
<linearGradient id="paint47_linear_150_739" x1="3.60406" y1="42.5099" x2="85.3361" y2="42.5099" gradientUnits="userSpaceOnUse">
<stop stop-color="#FBF49F"/>
<stop offset="1" stop-color="#A6833F"/>
</linearGradient>
</defs>
</svg>
