<svg width="85" height="85" viewBox="0 0 85 85" fill="none" xmlns="http://www.w3.org/2000/svg">
<path d="M78.3222 49.4863C76.4532 47.1866 74.1082 45.3191 71.4485 44.0121C68.7888 42.7052 65.8776 41.99 62.9151 41.9156C61.3158 37.7268 59.0705 33.8143 56.2607 30.3203C57.3254 30.2006 58.2999 29.666 58.9729 28.8324C59.6459 27.9987 59.9631 26.9334 59.8556 25.8674L59.6726 24.1422C59.5686 23.1618 59.1056 22.2547 58.3726 21.5954C57.6397 20.9361 56.6887 20.5713 55.7029 20.5713H50.6823C49.8626 20.5826 49.0546 20.7666 48.3107 21.111C47.5669 21.4555 46.904 21.9528 46.3652 22.5706C45.8264 23.1884 45.4237 23.9127 45.1836 24.6965C44.9434 25.4802 44.871 26.3058 44.9711 27.1194C44.9596 28.2589 45.3445 29.367 46.0601 30.2539C48.701 33.4539 50.3205 37.373 50.7089 41.5039L50.7221 49.2738C50.584 50.7654 49.9371 52.1642 48.8899 53.2356C47.8428 54.3069 46.4591 54.9855 44.971 55.1578C38.829 56.2445 34.6029 52.3112 38.4761 47.0556C39.2311 46.0234 39.7178 44.8198 39.8923 43.5529C39.9822 43.0931 39.9698 42.6191 39.8559 42.1647C39.7419 41.7102 39.5293 41.2865 39.2331 40.9235C38.9368 40.5605 38.5643 40.2673 38.1419 40.0646C37.7195 39.8618 37.2577 39.7547 36.7892 39.7506H15.5778C15.1388 39.7537 14.7047 39.8435 14.3005 40.015C13.8963 40.1864 13.53 40.4361 13.2226 40.7496C12.9152 41.0631 12.6729 41.4343 12.5095 41.8418C12.3461 42.2494 12.2649 42.6852 12.2706 43.1242C12.2634 43.7758 12.1176 44.4184 11.8428 45.0093C11.568 45.6001 11.1705 46.1257 10.6767 46.5509C8.63352 48.5016 7.01479 50.8528 5.92176 53.4576C5.22366 55.0145 5.12498 56.7743 5.64463 58.3994C6.16428 60.0246 7.26568 61.4006 8.73754 62.2636C8.9325 62.3748 9.15232 62.435 9.37671 62.4388C9.6011 62.4426 9.82282 62.3897 10.0214 62.2851C10.2199 62.1805 10.389 62.0276 10.5128 61.8404C10.6366 61.6533 10.7113 61.4379 10.7299 61.2143C10.7591 59.3204 11.2904 57.4681 12.2696 55.8467C13.2488 54.2253 14.6407 52.8928 16.3033 51.9852C17.9658 51.0777 19.8395 50.6276 21.7329 50.681C23.6262 50.7343 25.4716 51.2892 27.0804 52.289C28.427 53.1241 29.5573 54.2656 30.379 55.6204C31.2007 56.9753 31.6905 58.5052 31.8086 60.0854C31.8652 60.7324 32.1629 61.3346 32.6426 61.7725C33.1223 62.2104 33.7491 62.4521 34.3986 62.4496H52.9536C53.6044 62.4582 54.2344 62.22 54.7167 61.7828C55.199 61.3457 55.4978 60.742 55.5529 60.0935C55.7124 57.6938 56.7574 55.4389 58.4854 53.7662C60.2133 52.0935 62.501 51.1222 64.9045 51.0407C71.5614 50.7596 75.0798 57.4655 75.2541 57.8142C75.344 57.9863 75.4701 58.137 75.6236 58.2559C75.7771 58.3748 75.9545 58.4593 76.1437 58.5034C76.3328 58.5475 76.5292 58.5503 76.7195 58.5116C76.9098 58.4729 77.0896 58.3935 77.2464 58.279C77.901 57.7772 78.449 57.1499 78.8583 56.4338C79.2676 55.7177 79.53 54.9272 79.6301 54.1085C79.7303 53.2898 79.6662 52.4593 79.4417 51.6657C79.2171 50.872 78.8365 50.1311 78.3222 49.4863Z" fill="#F0F1F4" fill-opacity="0.85"/>
<path d="M16.2153 38.2894H35.5273C36.0847 38.2904 36.6367 38.1816 37.1519 37.9692C37.6672 37.7568 38.1355 37.4449 38.5302 37.0515C38.9249 36.658 39.2382 36.1907 39.4523 35.6761C39.6663 35.1616 39.7769 34.6099 39.7777 34.0526V23.8651C39.7777 23.8651 12.9097 23.8626 11.9648 23.8651L11.965 34.0526C11.9688 35.1774 12.4183 36.2549 13.2149 37.049C14.0116 37.8431 15.0905 38.2892 16.2153 38.2894Z" fill="#F0F1F4" fill-opacity="0.85"/>
<path d="M39.7778 21.2088V18.061C39.777 17.5036 39.6664 16.9519 39.4524 16.4374C39.2384 15.9228 38.925 15.4554 38.5303 15.062C38.1356 14.6685 37.6673 14.3567 37.152 14.1442C36.6368 13.9318 36.0847 13.823 35.5274 13.824H16.2154C15.0905 13.8242 14.0116 14.2703 13.215 15.0644C12.4183 15.8586 11.9689 16.9361 11.9651 18.061V21.2088H39.7778Z" fill="#F0F1F4" fill-opacity="0.85"/>
<path d="M21.2093 53.3025C18.9535 53.306 16.7911 54.2037 15.196 55.7988C13.6009 57.3939 12.7032 59.5563 12.6997 61.8121C13.1309 73.0861 29.2973 73.0821 29.719 61.812C29.7175 59.5555 28.8204 57.392 27.2249 55.7964C25.6293 54.2009 23.4657 53.3039 21.2093 53.3025ZM21.2093 63.6226C20.7339 63.6153 20.2805 63.4213 19.9469 63.0826C19.6133 62.7438 19.4263 62.2874 19.4263 61.812C19.4263 61.3366 19.6133 60.8802 19.9469 60.5414C20.2805 60.2027 20.734 60.0087 21.2094 60.0015C21.6848 60.0088 22.1382 60.2027 22.4718 60.5415C22.8054 60.8803 22.9924 61.3366 22.9924 61.8121C22.9924 62.2875 22.8054 62.7439 22.4718 63.0826C22.1382 63.4214 21.6847 63.6153 21.2093 63.6226Z" fill="#F0F1F4" fill-opacity="0.85"/>
<path d="M65.6778 53.3025C63.4214 53.304 61.2578 54.201 59.6622 55.7965C58.0667 57.3921 57.1697 59.5557 57.1682 61.8122C57.5634 73.0756 73.7939 73.0727 74.1874 61.812C74.1859 59.5556 73.2889 57.392 71.6934 55.7965C70.0978 54.201 67.9342 53.304 65.6778 53.3025ZM65.6778 63.6227C65.2021 63.6159 64.7482 63.4221 64.4142 63.0833C64.0803 62.7445 63.893 62.2878 63.893 61.8121C63.8931 61.3363 64.0803 60.8797 64.4143 60.5409C64.7483 60.2021 65.2022 60.0084 65.6779 60.0016C66.1536 60.0084 66.6075 60.2021 66.9415 60.541C67.2754 60.8798 67.4627 61.3364 67.4627 61.8122C67.4626 62.2879 67.2754 62.7445 66.9414 63.0833C66.6074 63.4221 66.1535 63.6159 65.6778 63.6227Z" fill="#F0F1F4" fill-opacity="0.85"/>
</svg>
