<svg width="85" height="85" viewBox="0 0 85 85" fill="none" xmlns="http://www.w3.org/2000/svg">
<path d="M13.9475 27.658C17.5763 27.658 20.5181 24.7162 20.5181 21.0874C20.5181 17.4586 17.5763 14.5168 13.9475 14.5168C10.3187 14.5168 7.37695 17.4586 7.37695 21.0874C7.37695 24.7162 10.3187 27.658 13.9475 27.658Z" fill="#F0F1F4" fill-opacity="0.85"/>
<path d="M26.7279 49.3091C26.551 47.7883 25.2636 46.6417 23.7329 46.6417H23.7315L18.5049 46.646V39.4628C20.2584 41.0006 22.2404 41.9704 24.8293 41.9704C26.3523 41.9704 28.0902 41.6295 30.1097 40.879L30.6119 41.708C30.7449 41.928 30.9783 42.0489 31.2174 42.0489C31.3426 42.0489 31.4678 42.0157 31.5831 41.9463C31.9177 41.7448 32.0245 41.3097 31.8222 40.9752L31.3044 40.1186C31.9262 39.4289 32.1561 38.4301 31.801 37.5035C31.3334 36.2805 30.0241 35.6382 28.7848 35.9586L26.2561 31.7796C26.0538 31.445 25.6187 31.3389 25.2849 31.5405C24.9503 31.7435 24.8435 32.1771 25.0458 32.5117L27.4126 36.4212C23.1897 37.8041 21.9992 36.4361 17.8174 30.7207C17.8075 30.7066 17.7955 30.6974 17.7841 30.6832C16.9176 29.3308 15.3983 28.419 13.9461 28.0625C13.9461 28.0625 13.255 27.8552 12.5186 27.8715C11.8141 27.8864 11.0297 28.0512 11.0297 28.0512L11.0106 28.054C8.8001 28.5958 6.44604 30.396 6.44604 33.0981L6.44746 47.6016C6.44746 50.7543 9.57819 52.7051 12.4762 52.7037C12.6382 52.7037 12.7995 52.6896 12.9614 52.6789L21.0493 52.6719L22.7745 67.5651C22.9527 69.1015 24.2571 70.2325 25.7659 70.2325C25.8819 70.2325 25.9993 70.2247 26.1181 70.212C27.7705 70.021 28.9574 68.5236 28.765 66.8698L26.7279 49.3091Z" fill="#F0F1F4" fill-opacity="0.85"/>
<path d="M20.2528 56.0942C20.2528 54.6865 19.1104 53.5442 17.7014 53.5442H5.1014V33.309C5.1014 31.9014 3.95903 30.759 2.54999 30.759C1.14095 30.759 0 31.9021 0 33.309V56.0934C0 57.0271 0.50434 57.8427 1.25271 58.2876C0.766059 59.1556 0.488778 60.1529 0.488778 61.2154V68.3468C0.488778 69.5267 1.44511 70.4837 2.62356 70.4837C3.80342 70.4837 4.76046 69.5267 4.76046 68.3468V61.2154C4.76046 60.2512 5.54349 59.4668 6.50832 59.4668H13.6398C14.6025 59.4668 15.3877 60.2491 15.3877 61.2154V68.3468C15.3877 69.5267 16.344 70.483 17.5239 70.483C18.7037 70.483 19.6601 69.5267 19.6601 68.3468V61.2154C19.6601 60.1713 19.3934 59.1902 18.9237 58.3336C19.7138 57.9 20.2528 57.0597 20.2528 56.0942Z" fill="#F0F1F4" fill-opacity="0.85"/>
<path d="M71.0497 27.658C74.6785 27.658 77.6203 24.7162 77.6203 21.0874C77.6203 17.4586 74.6785 14.5168 71.0497 14.5168C67.4209 14.5168 64.4791 17.4586 64.4791 21.0874C64.4791 24.7162 67.4209 27.658 71.0497 27.658Z" fill="#F0F1F4" fill-opacity="0.85"/>
<path d="M72.5224 52.7051C75.4232 52.7066 78.5511 50.7557 78.5511 47.603V33.0988C78.5511 30.3968 76.1985 28.5966 73.988 28.0547L73.9696 28.0519C73.9696 28.0519 73.1838 27.8878 72.4807 27.8722C71.7443 27.856 71.0532 28.0632 71.0532 28.0632C69.6003 28.4197 68.0817 29.3315 67.2145 30.684C67.2031 30.6981 67.1918 30.7073 67.1812 30.7214C62.8027 36.7063 61.6993 37.9223 56.9643 36.2048L59.1988 32.5118C59.4018 32.1772 59.295 31.7436 58.9597 31.5406C58.6258 31.3404 58.1915 31.4451 57.9885 31.7796L55.5142 35.8674C54.5126 35.8936 53.5782 36.5097 53.1969 37.5035C52.9338 38.1932 52.9946 38.921 53.2959 39.5343L52.4245 40.9752C52.2222 41.3098 52.329 41.7448 52.6636 41.9464C52.7782 42.0157 52.9041 42.0496 53.0293 42.0496C53.2691 42.0496 53.5025 41.928 53.6348 41.7087L54.2983 40.613C54.4171 40.6823 54.5373 40.7495 54.6696 40.7998C56.7846 41.6097 58.5905 41.9711 60.1707 41.9711C62.7596 41.9711 64.7409 41.0014 66.4944 39.4636V46.646L61.2678 46.6418C61.2664 46.6418 61.2664 46.6418 61.2642 46.6418C59.7342 46.6418 58.4469 47.7884 58.2714 49.3092L56.235 66.8712C56.0433 68.525 57.2274 70.0225 58.8833 70.2134C59.0007 70.2276 59.1167 70.234 59.2327 70.234C60.7429 70.234 62.0459 69.1015 62.2241 67.5665L63.9507 52.6733L72.0386 52.6804C72.1977 52.691 72.3618 52.7051 72.5224 52.7051Z" fill="#F0F1F4" fill-opacity="0.85"/>
<path d="M85 56.0942V33.309C85 31.9014 83.8584 30.759 82.4507 30.759C81.0417 30.759 79.8993 31.9014 79.8993 33.309V53.5427H67.2993C65.8903 53.5427 64.7479 54.6851 64.7479 56.092C64.7479 57.0576 65.2855 57.9 66.077 58.3315C65.6088 59.1881 65.3421 60.1713 65.3421 61.2132V68.3447C65.3421 69.5246 66.2984 70.4816 67.4783 70.4816C68.6567 70.4816 69.6152 69.5246 69.6152 68.3447V61.2146C69.6152 60.2505 70.3975 59.4661 71.3638 59.4661H78.4945C79.4587 59.4661 80.2431 60.2484 80.2431 61.2146V68.3461C80.2431 69.526 81.1994 70.4823 82.3793 70.4823C83.5592 70.4823 84.5155 69.526 84.5155 68.3461V61.2154C84.5155 60.1529 84.2375 59.1556 83.7516 58.2869C84.4957 57.842 85 57.0279 85 56.0942Z" fill="#F0F1F4" fill-opacity="0.85"/>
<path d="M58.5947 44.9434C58.5947 43.5938 57.5005 42.4988 56.1508 42.4988H27.7989C26.4492 42.4988 25.355 43.593 25.355 44.9434C25.355 46.2937 26.4492 47.3873 27.7989 47.3873H31.1517V69.0916H52.7973V47.3873H56.1508C57.5005 47.3873 58.5947 46.2923 58.5947 44.9434Z" fill="#F0F1F4" fill-opacity="0.85"/>
</svg>
