<svg width="85" height="85" viewBox="0 0 85 85" fill="none" xmlns="http://www.w3.org/2000/svg">
<path d="M72.5422 6.46802H69.8992C69.3414 6.46802 68.7305 7.27817 68.7305 8.46021V18.5141C68.7305 19.6961 69.3414 20.5063 69.8992 20.5063H72.5422C73.1 20.5063 73.7109 19.6961 73.7109 18.5141V8.46021C73.7109 7.27817 73.1 6.46802 72.5422 6.46802Z" fill="#F0F1F4"/>
<path d="M14.6491 22.1265H41.7694L48.0647 15.8179H14.6491C13.9908 15.8191 13.3598 16.0812 12.8944 16.5467C12.4289 17.0122 12.1668 17.6432 12.1655 18.3015V19.6429C12.1668 20.3012 12.4288 20.9322 12.8943 21.3977C13.3598 21.8631 13.9908 22.1252 14.6491 22.1265Z" fill="#F0F1F4"/>
<path d="M39.0071 10.6915L31.968 14.4899H49.6719C49.8019 14.4918 49.9284 14.5318 50.0359 14.6049C50.1433 14.678 50.227 14.781 50.2765 14.9012C50.3259 15.0214 50.3391 15.1534 50.3143 15.281C50.2894 15.4085 50.2277 15.526 50.1368 15.6189L42.5133 23.2556L42.4071 23.3751C41.7904 24.0074 41.4345 24.8489 41.4104 25.7318C41.3863 26.6147 41.6957 27.4743 42.277 28.1393C42.8583 28.8044 43.6688 29.226 44.547 29.3202C45.4252 29.4144 46.3067 29.1743 47.0158 28.6478L54.7321 22.7508C54.7886 22.7099 54.8514 22.6785 54.918 22.6579C55.5535 22.5958 56.1926 22.578 56.8305 22.6047C58.1789 22.6023 59.4713 22.0657 60.4248 21.1122C61.3782 20.1588 61.9149 18.8664 61.9172 17.518C61.9164 17.4306 61.933 17.3438 61.966 17.2629C61.9991 17.1819 62.048 17.1084 62.1098 17.0465C62.1716 16.9847 62.2452 16.9358 62.3262 16.9028C62.4071 16.8697 62.4939 16.8531 62.5813 16.854H67.4024V9.25709H44.7047C42.7159 9.25452 40.7577 9.74749 39.0071 10.6915Z" fill="#F0F1F4"/>
<path d="M51.7039 75.3314H60.4296L56.0601 70.9751L51.7039 75.3314Z" fill="#F0F1F4"/>
<path d="M55.6351 23.9329L50.7742 42.0219V74.4016L55.4093 69.7532V44.1868C55.4093 44.0106 55.4793 43.8417 55.6038 43.7172C55.7284 43.5927 55.8973 43.5227 56.0734 43.5227C56.2495 43.5227 56.4184 43.5927 56.543 43.7172C56.6675 43.8417 56.7375 44.0106 56.7375 44.1868V69.7797L61.3726 74.4149V42.6594L55.821 23.9329H55.6351Z" fill="#F0F1F4"/>
<path d="M47.8124 29.6969C46.9233 30.3593 45.8339 30.6968 44.726 30.6532C43.6181 30.6096 42.5587 30.1875 41.7244 29.4572C40.8901 28.727 40.3313 27.7328 40.1414 26.6404C39.9514 25.5481 40.1417 24.4236 40.6805 23.4546L15.1405 23.4547L10.6515 38.6086C9.0255 42.2423 10.083 69.0045 9.80114 73.3391C9.80085 73.6008 9.85218 73.86 9.95222 74.1019C10.0523 74.3438 10.199 74.5635 10.3841 74.7486C10.5692 74.9336 10.789 75.0803 11.0308 75.1803C11.2727 75.2803 11.5319 75.3316 11.7937 75.3313H49.446V41.9289C49.4483 41.8706 49.4572 41.8127 49.4726 41.7563L53.9882 24.9821L47.8124 29.6969Z" fill="#F0F1F4"/>
</svg>
